<?xml version="1.0" encoding="utf-8"?>
<!-- Generator: Adobe Illustrator 24.1.2, SVG Export Plug-In . SVG Version: 6.00 Build 0)  -->
<svg version="1.1" id="Layer_1" xmlns="http://www.w3.org/2000/svg" xmlns:xlink="http://www.w3.org/1999/xlink" x="0px" y="0px"
	 viewBox="0 0 629.1 152.3" style="enable-background:new 0 0 629.1 152.3;" xml:space="preserve">
<style type="text/css">
	.st0{fill:#0DCA0D;}
</style>
<g>
	<g>
		<path class="st0" d="M76.2,119.9c-2,0-4.9,0.1-7.2-0.4c1.2,2.6,4,4.6,7.1,4.6s5.8-1.8,7-4.4C80.8,120,78,119.9,76.2,119.9"/>
		<path class="st0" d="M80.7,97.9c-1.4,7.6-0.6,14.4-0.2,16.9c-4,1.8-6.5,0.8-7.6,0.2c3.8-16.2-2-26.3-7.8-32
			c-6.2-6.2-13.5-8.4-13.8-8.5l-0.7,2.5c0.1,0,6.8,2.2,12.7,7.9c7.7,7.7,10,17.9,6.7,30.3l-0.2,0.7l0.6,0.5c0.1,0.1,2.2,1.9,5.6,1.9
			c1.8,0,3.8-0.5,6.4-1.7l0.8-0.5l-0.1-1c0-0.1-1.4-8.2,0.1-16.9c2.2-11.5,8.4-18.7,18.6-21.4l-0.6-2.5C90.1,77.4,83,85.4,80.7,97.9
			"/>
		<path class="st0" d="M76.2,2.7C35.6,2.7,2.7,35.7,2.7,76.2c0,40.6,32.9,73.4,73.4,73.4s73.4-32.9,73.4-73.4
			C149.7,35.7,116.7,2.7,76.2,2.7 M117.3,25.2c1.2,4.3,1.9,9,1.9,13.8c0,13.6-5.4,25.8-14.1,34.4c-0.2-7.6-1.6-14.8-3.7-21
			C109.5,45.9,115.3,36.4,117.3,25.2 M35.1,25.2c2,11.2,7.8,20.7,15.7,27.3c-2.2,6.2-3.5,13.5-3.7,21C38.5,65,33.1,52.7,33.1,39.1
			C33.2,34.3,33.8,29.6,35.1,25.2 M26.7,75.8c9.1-8.9,20.5,0,20.5,0C39.4,85.6,26.7,75.8,26.7,75.8 M102,87.1c0,0-18.1,10.3-15,29.1
			c0.1,0.5,0,1-0.1,1.4c-0.7,5.4-5.3,9.5-10.8,9.5c-6,0-10.9-4.9-10.9-10.9h0.2c0-0.1,0-0.1,0-0.2c1.1-24.5-14.8-29-14.8-29
			c-0.5-3.4-0.7-6.8-0.7-10.3c0-8.2,1.4-15.9,3.8-22.4l1.4,1c6.2,3.8,13.5,6,21.2,6c8.3,0,16-2.5,22.6-7l0.5,1.2
			c2.2,6.2,3.4,13.5,3.4,21.2C102.7,80.4,102.4,83.8,102,87.1 M105.1,75.8c0,0,11.4-8.9,20.5,0C125.6,75.8,113,85.6,105.1,75.8"/>
		<path class="st0" d="M205.2,51.3c-7.9,0-12.3,4.1-12.3,13.1V92c0,8.9,4.3,13.1,12.5,13.1c10.2,0,11.2-6.6,11.7-10.9
			c0.2-1.8,1.6-2.6,3.8-2.6c2.5,0,3.8,0.8,3.8,4.3c0,9.1-7.7,16.3-19.9,16.3c-10.8,0-19.7-5.4-19.7-20.1V64.5
			c0-14.7,9-20.1,19.8-20.1c12.4,0,19.8,7,19.8,16c0,3.5-1.3,4.2-3.8,4.2c-2.5,0-3.7-1-3.8-2.6C217,58.1,215.5,51.3,205.2,51.3"/>
		<path class="st0" d="M241.5,92V64.4c0-14.7,8.7-20.1,19.8-20.1c11.2,0,19.8,5.4,19.8,20.1V92c0,14.7-8.8,20.1-19.8,20.1
			C250.1,112.1,241.5,106.7,241.5,92 M273.5,64.3c0-8.9-4.6-13.1-12.1-13.1s-12,4.1-12,13.1v27.6c0,8.9,4.6,13.1,12,13.1
			c7.6,0,12.1-4.1,12.1-13.1V64.3z"/>
		<path class="st0" d="M349.3,109.4c-0.6,1.8-2.6,2.6-4.8,2.6s-4.3-0.8-4.8-2.6L331.7,79l-8.1,30.4c-0.5,1.8-2.5,2.6-4.7,2.6
			s-4.2-0.8-4.8-2.6l-18.3-61.2c-0.1-0.2-0.2-0.5-0.2-0.8c0-1.8,2.5-3.1,4.7-3.1c1.3,0,2.5,0.6,2.9,1.8l15.5,54.7l8.8-33.6
			c0.5-1.8,2.2-2.4,4.1-2.4c1.8,0,3.4,0.6,3.8,2.4l8.8,33.6L360,46c0.4-1.2,1.6-1.8,2.9-1.8c2.2,0,4.6,1.3,4.6,3.1
			c0,0.4,0,0.6-0.1,0.8L349.3,109.4z"/>
		<path class="st0" d="M409.1,93.5c0-11.2-29.2-9.3-29.2-30.8c0-13.8,12-19.1,23.6-19.1c4.9,0,18.3,1,18.3,8.1
			c0,2.5-1.7,7.6-5.6,7.6c-3.4,0-5-3.5-12.6-3.5c-6.5,0-9.3,2.6-9.3,5.5c0,9.3,29.2,7.5,29.2,30.6c0,13.2-9.6,20.4-23,20.4
			c-12,0-22.2-5.9-22.2-12c0-3.1,2.8-7.7,6.2-7.7c4.3,0,7.1,6.8,15.6,6.8C404.4,99.6,409.1,97.9,409.1,93.5"/>
		<path class="st0" d="M437.1,90.3V65.9c0-15.9,9.9-21.8,22.6-21.8c12.7,0,22.6,5.9,22.6,21.8v24.4c0,15.9-10,21.8-22.6,21.8
			C447,112.1,437.1,106.2,437.1,90.3 M468,65.9c0-6.4-3.1-9.3-8.3-9.3c-5.2,0-8.2,2.9-8.2,9.3v24.4c0,6.4,3,9.3,8.2,9.3
			c5.2,0,8.3-2.9,8.3-9.3V65.9z"/>
		<path class="st0" d="M498.9,48.5c0-3,3.6-4.3,7.2-4.3c3.6,0,7.2,1.3,7.2,4.3v22.1l17.2-24.4c1-1.4,2.3-2,3.7-2
			c3.7,0,8.4,3.7,8.4,7.3c0,0.7-0.2,1.8-1,2.8l-15.1,19l19.2,29.2c0.5,0.7,0.7,1.6,0.7,2.4c0,3.6-4.6,7.2-8.7,7.2
			c-1.9,0-3.7-0.7-4.9-2.6l-15.7-23.9l-3.8,4.9v16.7c0,3-3.6,4.4-7.2,4.4s-7.2-1.4-7.2-4.4L498.9,48.5L498.9,48.5z"/>
		<path class="st0" d="M556.5,90.3V65.9c0-15.9,9.9-21.8,22.6-21.8c12.7,0,22.6,5.9,22.6,21.8v24.4c0,15.9-10,21.8-22.6,21.8
			C566.3,112.1,556.5,106.2,556.5,90.3 M587.2,65.9c0-6.4-3.1-9.3-8.3-9.3c-5.2,0-8.2,2.9-8.2,9.3v24.4c0,6.4,3,9.3,8.2,9.3
			c5.2,0,8.3-2.9,8.3-9.3V65.9z"/>
		<path class="st0" d="M611.4,23.8c0.7,0,1,0.7,1,1.4c0,0.8-0.4,1.6-1,1.6h-2.9v11.5c0,0.7-0.8,1-1.7,1c-0.8,0-1.7-0.4-1.7-1V26.8
			h-2.9c-0.6,0-1-0.7-1-1.6c0-0.7,0.2-1.4,1-1.4H611.4z"/>
		<path class="st0" d="M621.2,33.8c-0.2,0.5-0.7,0.6-1.1,0.6s-0.8-0.1-1.1-0.6l-2-3.7v8.2c0,0.7-0.8,1-1.7,1c-0.8,0-1.7-0.4-1.7-1
			V25.4c0-1.2,0.8-1.7,1.7-1.7c1.2,0,1.7,0.1,2.5,1.7l2.2,3.8l2.2-3.8c0.8-1.6,1.3-1.7,2.5-1.7c0.8,0,1.7,0.5,1.7,1.7v12.9
			c0,0.7-0.8,1-1.7,1s-1.7-0.4-1.7-1v-7.9L621.2,33.8z"/>
	</g>
</g>
</svg>
